<svg xmlns="http://www.w3.org/2000/svg" version="1.0" viewBox="145.5 149.52 416.5 181.23">
  <path d="M181.8 150c-17.7 2.1-29.1 13.1-34.5 33-1.6 5.8-1.8 12-1.8 59.5 0 52.9 0 53 2.3 59.4 2.8 7.8 6.8 13.7 12.4 18.6 18.8 16.4 55.7 12.5 68.7-7.2 5.8-8.7 6.4-12.3 6.9-39.6l.4-24.7H195v19.8c0 16.3-.3 20.1-1.6 22-1.8 2.6-3.7 2.8-5.8.6-1.4-1.4-1.6-7.4-1.6-51.2 0-27.3.4-50.3.9-51.1.5-.7 2.1-1.4 3.6-1.4s3.1.7 3.6 1.4c.5.8.9 9.4.9 19.1V226h41v-17.8c0-25.9-1.9-34.4-9.5-43.8-9.1-11.1-26.1-16.6-44.7-14.4zM241 240v89h41v-78h10v78h40V151h-40l-.2 30.7-.3 30.8-4.7.3-4.8.3V151h-41v89zM341 240v89h77v-40h-36l.2-16.3.3-16.2 16.3-.3 16.2-.2v-38l-16.2-.2-16.3-.3v-27l16.8-.3 16.7-.2v-39h-75v89zM418.4 154.7c.3 2.1 2.2 18.6 4.1 36.8 1.9 18.1 5.1 47.8 7 66 6.1 56.5 7.5 70 7.5 70.7 0 .5 10.8.8 24 .8 22.2 0 24-.1 24-1.8.1-3.7 4.9-49.4 5.3-49.8.2-.3.7 3.3 1.1 7.8.7 8.7 3.2 32.3 4.2 39.5l.5 4.3h46.6l1.2-10.3c1.5-13.8 4.3-38.8 9.1-83.7 2.3-20.6 5.2-47.5 6.5-59.7 1.4-12.3 2.5-22.7 2.5-23.3 0-.6-7.1-1-20-1h-19.9l-.5 3.2c-.3 1.8-1.7 17.9-3.2 35.8-2.3 28.8-3.4 38.5-3.4 30.9 0-1.3-.9-12.8-2-25.4-1.1-12.7-2.2-26.4-2.5-30.5-.3-4.1-.8-9-1.1-10.8l-.5-3.2h-37.5l-2.8 32.7c-1.6 18.1-3.2 34.6-3.5 36.8-.7 4.2-.7 4.7-4.6-41.5-.8-9.6-1.7-19.9-2-22.8l-.6-5.2h-40.1l.6 3.7z"/>
</svg>